<?xml version="1.0" standalone="no"?>
<!DOCTYPE svg PUBLIC "-//W3C//DTD SVG 20010904//EN"
 "http://www.w3.org/TR/2001/REC-SVG-20010904/DTD/svg10.dtd">
<svg version="1.0" xmlns="http://www.w3.org/2000/svg"
 width="2000.000000pt" height="512.000000pt" viewBox="0 0 2000.000000 512.000000"
 preserveAspectRatio="xMidYMid meet">
<metadata>
Created by potrace 1.16, written by Peter Selinger 2001-2019
</metadata>
<g transform="translate(0.000000,512.000000) scale(0.100000,-0.100000)"
fill="#000000" stroke="none">
<path d="M535 5076 c-130 -31 -233 -114 -292 -234 l-38 -76 -3 -1840 c-2
-2018 -6 -1877 55 -1982 30 -53 117 -135 171 -163 105 -53 14 -51 1947 -51
1957 0 1846 -3 1957 57 67 37 143 121 181 200 l32 68 0 1855 0 1855 -32 68
c-60 127 -182 221 -319 246 -88 17 -3592 14 -3659 -3z m2738 -867 c52 -14 112
-71 133 -125 14 -36 16 -64 11 -147 -7 -121 -24 -182 -82 -298 -104 -206 -311
-421 -591 -614 -55 -38 -103 -71 -107 -75 -11 -9 9 -428 29 -604 35 -318 98
-511 178 -547 11 -5 70 -18 129 -28 154 -26 171 -51 73 -104 -35 -19 -57 -22
-151 -22 -99 0 -115 3 -161 27 -113 59 -182 181 -214 378 -6 36 -17 216 -25
400 -14 336 -22 393 -60 474 -20 42 -67 76 -105 76 -22 0 -35 -19 -114 -167
-49 -93 -148 -276 -219 -408 -71 -132 -158 -294 -193 -359 -35 -66 -70 -123
-77 -128 -17 -11 -90 -10 -120 1 -16 6 -29 23 -36 44 -10 31 -7 48 25 148 110
341 320 725 759 1389 196 296 281 400 423 520 104 88 202 143 288 164 72 17
156 20 207 5z"/>
<path d="M3050 4047 c-261 -108 -630 -567 -634 -789 -1 -47 3 -61 22 -80 21
-21 31 -23 130 -23 105 0 110 1 184 38 178 88 365 320 444 552 22 65 28 99 28
181 1 87 -2 105 -18 123 -25 28 -85 27 -156 -2z"/>
<path d="M8767 4799 c-153 -69 -281 -129 -284 -133 -4 -3 2 -6 13 -6 77 0 170
-68 201 -148 17 -45 18 -121 21 -1477 2 -1049 0 -1450 -8 -1505 -22 -137 -77
-242 -148 -280 l-37 -19 370 0 370 0 -36 19 c-69 36 -134 143 -159 260 -17 79
-26 853 -11 951 22 146 105 259 234 319 253 118 530 -10 603 -277 17 -62 19
-109 19 -503 0 -381 -2 -444 -18 -510 -25 -105 -72 -187 -131 -227 l-48 -33
368 0 368 0 -47 29 c-53 34 -95 100 -129 201 -21 62 -22 87 -29 590 -5 432 -9
537 -23 595 -51 219 -206 382 -407 430 -82 19 -256 19 -337 0 -128 -30 -281
-117 -385 -219 l-47 -45 -2 1058 -3 1057 -278 -127z"/>
<path d="M14576 4797 c-288 -131 -289 -132 -247 -139 97 -16 156 -73 189 -177
16 -52 17 -161 17 -1491 0 -1588 4 -1494 -64 -1628 -31 -61 -59 -92 -106 -116
-28 -15 -1 -16 339 -16 l370 0 -45 29 c-70 44 -118 131 -144 260 -13 64 -15
151 -13 537 l3 460 38 76 c101 206 357 290 572 189 81 -37 144 -101 188 -191
55 -108 59 -156 54 -636 -4 -458 -5 -472 -57 -580 -30 -61 -65 -101 -109 -124
l-36 -19 370 -1 c365 0 370 0 340 19 -67 42 -119 122 -151 237 -15 50 -18 136
-24 584 -8 583 -9 590 -77 729 -68 136 -196 238 -353 277 -49 12 -95 15 -195
12 -112 -4 -141 -9 -211 -35 -108 -39 -210 -101 -289 -175 l-65 -60 -2 1056
-3 1055 -289 -132z"/>
<path d="M5697 4649 c70 -35 124 -115 160 -236 16 -53 18 -165 21 -1413 2
-942 0 -1380 -8 -1438 -20 -154 -72 -250 -164 -302 l-51 -30 403 0 c221 0 402
2 402 5 0 2 -17 13 -38 24 -46 23 -93 75 -123 132 -49 98 -49 73 -49 1622 l0
1447 229 0 c253 0 348 -9 453 -45 255 -86 434 -322 467 -618 27 -235 -60 -482
-223 -634 -166 -156 -319 -202 -674 -203 -74 0 -132 -4 -130 -8 2 -5 306 -394
677 -865 l674 -857 293 0 c162 0 294 3 294 8 0 4 -31 27 -68 52 -37 25 -149
126 -252 230 -172 172 -218 226 -624 743 -240 308 -436 560 -434 561 2 1 41
12 87 24 184 49 315 120 447 246 206 194 304 413 304 677 0 463 -284 774 -795
871 -102 19 -154 21 -715 25 l-605 4 42 -22z"/>
<path d="M13046 3194 l-300 -339 136 -3 136 -3 4 -607 c4 -584 5 -610 26 -685
53 -193 163 -318 317 -363 74 -21 228 -23 305 -5 110 27 200 88 262 179 35 50
83 177 92 242 6 45 6 45 -11 20 -9 -14 -46 -55 -83 -91 -81 -82 -150 -112
-255 -113 -58 0 -81 5 -127 27 -64 31 -131 100 -158 160 -35 80 -40 160 -40
705 l0 532 320 0 320 0 0 100 0 100 -320 0 -320 0 -2 242 -3 241 -299 -339z"/>
<path d="M16888 2972 c-141 -64 -255 -119 -252 -124 3 -4 15 -8 28 -8 31 0 97
-45 125 -85 55 -82 56 -85 56 -665 0 -469 -2 -544 -18 -609 -24 -108 -78 -190
-153 -238 -15 -9 58 -12 339 -12 196 -1 357 2 357 7 0 4 -13 13 -30 20 -44 20
-107 106 -132 181 -22 64 -22 82 -26 552 -3 474 -3 488 18 549 12 35 35 82 51
106 85 124 260 196 418 174 183 -26 328 -175 361 -370 18 -106 8 -919 -12
-985 -29 -97 -89 -184 -153 -222 -16 -9 56 -12 338 -12 196 -1 357 2 357 7 0
4 -15 14 -33 23 -46 23 -112 124 -133 206 -15 58 -18 131 -21 513 -5 483 -2
523 47 620 76 151 273 247 450 219 169 -26 297 -148 347 -330 16 -56 18 -113
18 -484 0 -461 -5 -517 -55 -621 -27 -56 -75 -109 -126 -141 -15 -9 60 -12
346 -12 287 0 361 3 345 12 -39 23 -102 94 -124 139 -48 100 -52 150 -60 708
-9 576 -9 576 -74 710 -65 133 -216 248 -365 279 -88 18 -258 14 -348 -9 -155
-39 -308 -131 -414 -247 -28 -30 -52 -54 -54 -52 -2 2 -15 27 -31 56 -60 113
-199 215 -336 248 -84 19 -245 19 -322 -1 -122 -31 -232 -99 -354 -218 l-83
-80 0 157 c0 143 -2 157 -17 156 -10 -1 -134 -53 -275 -117z"/>
<path d="M10695 3033 c82 -44 149 -124 217 -258 23 -44 171 -374 330 -734
l289 -655 -67 -160 c-223 -536 -478 -958 -666 -1098 -29 -22 -55 -42 -57 -44
-2 -2 113 -4 257 -4 l261 0 46 148 c70 226 131 401 205 587 100 252 805 1886
858 1989 53 103 125 181 204 220 l52 26 -340 -1 c-270 0 -333 -3 -309 -12 59
-23 77 -39 101 -90 28 -61 33 -175 11 -248 -16 -53 -369 -921 -373 -917 -10
11 -426 988 -435 1023 -6 25 -9 70 -7 100 5 64 30 97 93 126 40 18 37 19 -330
18 -346 0 -368 -1 -340 -16z"/>
</g>
</svg>
